<svg width="280" height="93" viewBox="0 0 280 93" fill="none" xmlns="http://www.w3.org/2000/svg">
<path d="M115.343 39.1972V5.07222H124.32C127.992 5.07222 130.765 5.82222 132.64 7.32222C134.531 8.80659 135.476 10.9706 135.476 13.8144C135.476 15.8769 134.953 17.5878 133.906 18.9472C132.859 20.3066 131.382 21.1738 129.476 21.5488C131.632 21.83 133.429 22.7675 134.867 24.3613C136.304 25.9394 137.023 27.7519 137.023 29.7988C137.023 32.705 136.078 35.0019 134.187 36.6894C132.312 38.3613 129.695 39.1972 126.335 39.1972H115.343ZM116.609 22.3456V37.9316H126.476C129.367 37.9316 131.632 37.2206 133.273 35.7988C134.929 34.3613 135.757 32.3769 135.757 29.8456C135.757 27.6894 134.961 25.916 133.367 24.5253C131.773 23.1191 129.64 22.3925 126.968 22.3456H116.609ZM116.609 21.08H124.789C127.898 21.08 130.242 20.4863 131.82 19.2988C133.398 18.0956 134.187 16.2363 134.187 13.7206C134.187 8.87691 130.992 6.41597 124.601 6.33784H116.609V21.08ZM146.515 39.1972H145.25V5.07222H146.515V39.1972ZM215.867 39.1972H214.601L192.57 7.22847V39.1972H191.281V5.07222H192.57L214.601 36.9706V5.07222H215.867V39.1972ZM248.468 28.7441C248.14 32.2597 246.929 34.9628 244.835 36.8534C242.742 38.7284 239.898 39.666 236.304 39.666C233.882 39.666 231.734 39.0566 229.859 37.8378C228 36.6034 226.554 34.8613 225.523 32.6113C224.492 30.3456 223.968 27.7597 223.953 24.8534V19.58C223.953 16.6738 224.461 14.08 225.476 11.7988C226.492 9.50191 227.937 7.72847 229.812 6.47847C231.703 5.22847 233.867 4.60347 236.304 4.60347C239.867 4.60347 242.703 5.54097 244.812 7.41597C246.921 9.29097 248.14 11.9785 248.468 15.4784H247.203C246.843 12.3378 245.75 9.95503 243.921 8.33003C242.093 6.68941 239.554 5.8691 236.304 5.8691C232.992 5.8691 230.312 7.11909 228.265 9.6191C226.234 12.1191 225.218 15.4706 225.218 19.6738V24.6894C225.218 27.3769 225.671 29.7597 226.578 31.8378C227.484 33.9003 228.781 35.5097 230.468 36.666C232.171 37.8222 234.117 38.4003 236.304 38.4003C239.57 38.4003 242.117 37.5956 243.945 35.9863C245.789 34.3769 246.875 31.9628 247.203 28.7441H248.468ZM274.367 29.0019H257.656L253.859 39.1972H252.476L265.25 5.07222H266.796L279.57 39.1972H278.187L274.367 29.0019ZM258.125 27.7363H273.898L266.023 6.59566L258.125 27.7363Z" fill="black"/>
<path d="M24.5156 77.7441C24.1875 81.2597 22.9765 83.9628 20.8828 85.8534C18.789 87.7284 15.9453 88.666 12.3515 88.666C9.92964 88.666 7.78125 88.0566 5.90625 86.8378C4.04688 85.6034 2.60156 83.8613 1.57032 81.6113C0.539058 79.3456 0.015626 76.7597 0 73.8534V68.58C0 65.6738 0.507818 63.08 1.52344 60.7988C2.53906 58.5019 3.98438 56.7284 5.85938 55.4784C7.75 54.2284 9.91404 53.6034 12.3515 53.6034C15.914 53.6034 18.75 54.541 20.8593 56.416C22.9687 58.291 24.1875 60.9784 24.5156 64.4784H23.25C22.8906 61.3378 21.7968 58.955 19.9687 57.33C18.1406 55.6894 15.6015 54.8691 12.3515 54.8691C9.03904 54.8691 6.35938 56.1191 4.3125 58.6191C2.28125 61.1191 1.26563 64.4706 1.26563 68.6738V73.6894C1.26563 76.3769 1.71875 78.7597 2.625 80.8378C3.53125 82.9003 4.82813 84.5097 6.51563 85.666C8.21875 86.8222 10.164 87.4003 12.3515 87.4003C15.6172 87.4003 18.164 86.5956 19.9922 84.9863C21.8359 83.3769 22.9218 80.9628 23.25 77.7441H24.5156ZM50.414 78.0019H33.7031L29.9062 88.1972H28.5234L41.2968 54.0722H42.8437L55.6172 88.1972H54.2343L50.414 78.0019ZM34.1718 76.7363H49.9453L42.0703 55.5956L34.1718 76.7363ZM74.1093 73.5956H62.2734V88.1972H61.0078V54.0722H71.8828C75.3046 54.0722 78.0234 54.955 80.039 56.7206C82.0703 58.4863 83.0859 60.8847 83.0859 63.916C83.0859 66.2441 82.3593 68.2831 80.9062 70.0331C79.4687 71.7675 77.6328 72.8456 75.3984 73.2675L84.5156 87.8691V88.1972H83.1796L74.1093 73.5956ZM62.2734 72.33H73.0312C75.6562 72.33 77.7734 71.5331 79.3828 69.9394C81.0078 68.3456 81.8203 66.3378 81.8203 63.916C81.8203 61.2597 80.9218 59.166 79.125 57.6347C77.3437 56.1034 74.8984 55.3378 71.789 55.3378H62.2734V72.33ZM117.117 88.1972H115.851L93.8203 56.2284V88.1972H92.5312V54.0722H93.8203L115.851 85.9706V54.0722H117.117V88.1972ZM144.89 71.2753H127.781V86.9316H147.281V88.1972H126.515V54.0722H147.281V55.3378H127.781V70.0097H144.89V71.2753ZM206.273 78.0019H189.562L185.765 88.1972H184.382L197.156 54.0722H198.703L211.476 88.1972H210.093L206.273 78.0019ZM190.031 76.7363H205.804L197.929 55.5956L190.031 76.7363ZM218.273 86.9316H235.781V88.1972H216.984V54.0722H218.273V86.9316ZM260.156 71.2753H243.046V86.9316H262.546V88.1972H241.781V54.0722H262.546V55.3378H243.046V70.0097H260.156V71.2753Z" fill="black"/>
<path d="M157.688 44.6972L170.013 2L182.339 44.6972H157.688Z" stroke="black"/>
<path d="M182.545 47.818L170.031 90.4602L157.894 47.7089L182.545 47.818Z" stroke="#262626"/>
</svg>
