<svg width="51" height="53" viewBox="0 0 51 53" fill="none" xmlns="http://www.w3.org/2000/svg">
<path fill-rule="evenodd" clip-rule="evenodd" d="M25.4072 53C39.4392 53 50.8145 41.1355 50.8145 26.5C50.8145 11.8645 39.4392 0 25.4072 0C11.3752 0 0 11.8645 0 26.5C0 41.1355 11.3752 53 25.4072 53ZM25.4072 12.0264C17.5503 12.0264 11.1792 18.67 11.1792 26.8664C11.1792 33.423 15.2561 38.9858 20.9092 40.9481C21.6201 41.0852 21.8816 40.6258 21.8816 40.234C21.8816 39.8802 21.8684 38.7112 21.8621 37.4711C17.9038 38.3687 17.0684 35.7202 17.0684 35.7202C16.4214 34.0049 15.4888 33.5484 15.4888 33.5484C14.1978 32.6276 15.5862 32.6466 15.5862 32.6466C17.0146 32.7514 17.7671 34.1767 17.7671 34.1767C19.0359 36.4448 21.0957 35.7889 21.9075 35.4096C22.0354 34.4505 22.4041 33.7958 22.8108 33.425C19.6509 33.0502 16.3284 31.7777 16.3284 26.0912C16.3284 24.4711 16.8843 23.147 17.7947 22.1081C17.647 21.734 17.1597 20.2248 17.9326 18.1805C17.9326 18.1805 19.1272 17.782 21.8459 19.7019C22.981 19.3732 24.1982 19.2082 25.4072 19.2026C26.6162 19.2082 27.8345 19.3732 28.9714 19.7019C31.6873 17.782 32.8804 18.1805 32.8804 18.1805C33.6548 20.2248 33.1677 21.734 33.02 22.1081C33.9324 23.147 34.4844 24.4711 34.4844 26.0912C34.4844 31.7914 31.1558 33.0458 27.9875 33.4137C28.4978 33.8739 28.9521 34.7772 28.9521 36.1617C28.9521 37.4512 28.9456 38.5773 28.9404 39.3422V39.3838V39.408C28.938 39.7878 28.9363 40.0719 28.9363 40.234C28.9363 40.6291 29.1924 41.0917 29.9138 40.9461C35.5637 38.9817 39.6355 33.421 39.6355 26.8664C39.6355 18.67 33.2651 12.0264 25.4072 12.0264ZM16.3242 33.379C16.426 33.4291 16.5371 33.4072 16.5686 33.3333C16.604 33.2593 16.5454 33.1582 16.4419 33.1096C16.3386 33.0587 16.2273 33.0797 16.1968 33.1557C16.1633 33.2297 16.2212 33.3304 16.3242 33.379ZM17.1445 34.004C17.0767 34.0696 16.9441 34.0388 16.854 33.9353C16.7605 33.8318 16.7434 33.6935 16.8123 33.6263C16.8823 33.5617 17.0107 33.592 17.104 33.6955C17.197 33.8003 17.2153 33.9373 17.1445 34.004ZM17.3875 34.7303C17.4753 34.8621 17.6182 34.922 17.7053 34.8585C17.7944 34.7938 17.7944 34.6353 17.7075 34.5014C17.6182 34.3704 17.4778 34.3134 17.3894 34.3765C17.3003 34.44 17.3003 34.5985 17.3875 34.7303ZM18.4741 35.6837C18.396 35.7739 18.23 35.7497 18.1084 35.6271C17.9839 35.5078 17.9495 35.3376 18.0273 35.2479C18.1069 35.1581 18.2739 35.1835 18.396 35.3053C18.5198 35.4245 18.5574 35.5956 18.4741 35.6837ZM19.1785 36.2829C19.3398 36.3323 19.4995 36.2797 19.5339 36.1637C19.5674 36.0452 19.4624 35.9101 19.3015 35.8596C19.1389 35.807 18.978 35.8616 18.9448 35.9789C18.9126 36.0961 19.0176 36.232 19.1785 36.2829ZM20.6987 36.2522C20.7026 36.3748 20.5662 36.4763 20.397 36.4787C20.2271 36.4828 20.0889 36.3833 20.0874 36.2628C20.0874 36.1395 20.2207 36.0392 20.3909 36.0359C20.5601 36.0327 20.6987 36.131 20.6987 36.2522ZM21.5173 36.3348C21.6851 36.3024 21.8027 36.1795 21.7825 36.0602C21.7612 35.9389 21.6104 35.8673 21.4419 35.8972C21.2773 35.9292 21.1575 36.0517 21.178 36.1743C21.199 36.2927 21.3518 36.3663 21.5173 36.3348Z" fill="white"/>
</svg>
