<svg width="51" height="53" viewBox="0 0 51 53" fill="none" xmlns="http://www.w3.org/2000/svg">
<path fill-rule="evenodd" clip-rule="evenodd" d="M25.4072 53C39.4392 53 50.8143 41.1355 50.8143 26.5C50.8143 11.8645 39.4392 0 25.4072 0C11.3751 0 0 11.8645 0 26.5C0 41.1355 11.3751 53 25.4072 53ZM25.4071 12.0264C17.5504 12.0264 11.1792 18.6699 11.1792 26.8663C11.1792 33.423 15.2561 38.9857 20.9092 40.9481C21.6202 41.0852 21.8816 40.6257 21.8816 40.234C21.8816 40.1351 21.8805 39.9725 21.8789 39.7626L21.8752 39.3032L21.8683 38.4275C21.8661 38.1228 21.8639 37.7994 21.8622 37.4709C17.9039 38.3687 17.0685 35.7201 17.0685 35.7201C16.4214 34.0049 15.4886 33.5483 15.4886 33.5483C14.1976 32.6276 15.5862 32.6466 15.5862 32.6466C17.0146 32.7513 17.7671 34.1766 17.7671 34.1766C19.036 36.4447 21.0957 35.7888 21.9076 35.4095C22.0354 34.4504 22.4042 33.7958 22.8108 33.425C19.6509 33.0502 16.3284 31.7776 16.3284 26.0912C16.3284 24.4711 16.8843 23.147 17.7946 22.108C17.6469 21.734 17.1595 20.2247 17.9326 18.1805C17.9326 18.1805 19.1271 17.782 21.8458 19.7019C22.9811 19.3732 24.1984 19.2081 25.4071 19.2025C26.6163 19.2081 27.8345 19.3732 28.9714 19.7019C31.6871 17.782 32.8805 18.1805 32.8805 18.1805C33.6547 20.2247 33.1677 21.734 33.02 22.108C33.9323 23.147 34.4844 24.4711 34.4844 26.0912C34.4844 31.7914 31.1558 33.0457 27.9875 33.4137C28.4978 33.8738 28.9521 34.7771 28.9521 36.1617C28.9521 38.1471 28.9362 39.7451 28.9362 40.234C28.9362 40.629 29.1925 41.0916 29.9139 40.946C35.5636 38.9817 39.6355 33.4209 39.6355 26.8663C39.6355 18.6699 33.265 12.0264 25.4071 12.0264ZM16.3242 33.3789C16.4258 33.4291 16.5371 33.4072 16.5685 33.3333C16.6039 33.2593 16.5452 33.1582 16.4417 33.1096C16.3386 33.0587 16.2273 33.0797 16.1967 33.1558C16.1631 33.2297 16.2211 33.3304 16.3242 33.3789ZM17.1444 34.004C17.0765 34.0696 16.944 34.0388 16.854 33.9353C16.7606 33.8318 16.7434 33.6935 16.8121 33.6263C16.8475 33.5936 16.8978 33.5852 16.9509 33.5983C17.0031 33.611 17.0579 33.6443 17.1041 33.6956C17.166 33.7651 17.1947 33.849 17.1863 33.9171C17.182 33.9514 17.1682 33.9817 17.1444 34.004ZM17.3875 34.7303C17.4755 34.8621 17.6182 34.9219 17.7053 34.8584C17.7946 34.7938 17.7946 34.6353 17.7075 34.5013C17.6182 34.3704 17.4778 34.3134 17.3894 34.3765C17.3002 34.4399 17.3002 34.5985 17.3875 34.7303ZM18.3751 35.7358C18.2932 35.7479 18.1907 35.71 18.1084 35.6271C17.9839 35.5078 17.9495 35.3376 18.0273 35.2478C18.0541 35.2177 18.0907 35.2006 18.1322 35.1958C18.1685 35.1915 18.2085 35.1967 18.2489 35.2108C18.2997 35.2285 18.351 35.2603 18.396 35.3052C18.4161 35.3246 18.4338 35.3453 18.4492 35.3668C18.4589 35.3802 18.4675 35.3939 18.4752 35.4078C18.4802 35.4167 18.4847 35.4258 18.4889 35.4348C18.4928 35.4436 18.4965 35.4524 18.4996 35.4612C18.5306 35.5459 18.5247 35.6301 18.4741 35.6837C18.4596 35.7004 18.442 35.7133 18.4224 35.7222C18.4077 35.7289 18.3918 35.7334 18.3751 35.7358ZM19.1786 36.283C19.34 36.3323 19.4996 36.2797 19.5342 36.1636C19.5675 36.0452 19.4624 35.91 19.3015 35.8595C19.139 35.807 18.9783 35.8616 18.9449 35.9789C18.9127 36.0961 19.0178 36.2319 19.1786 36.283ZM20.6987 36.2522C20.7026 36.3746 20.5662 36.4762 20.397 36.4786C20.2269 36.4827 20.089 36.3832 20.0874 36.2627C20.0874 36.2349 20.0942 36.2083 20.1067 36.1836C20.1494 36.099 20.2592 36.0383 20.391 36.0359C20.5599 36.0326 20.6987 36.1309 20.6987 36.2522ZM21.5175 36.3347C21.6853 36.3024 21.8027 36.1794 21.7826 36.0602C21.7612 35.9388 21.6105 35.8672 21.442 35.8972C21.2775 35.9292 21.1576 36.0516 21.1782 36.1742C21.1991 36.2926 21.3519 36.3662 21.5175 36.3347Z" fill="#FFB192"/>
</svg>
