<svg width="51" height="53" viewBox="0 0 51 53" fill="none" xmlns="http://www.w3.org/2000/svg">
<path fill-rule="evenodd" clip-rule="evenodd" d="M25.4072 53C39.4392 53 50.8145 41.1355 50.8145 26.5C50.8145 11.8645 39.4392 0 25.4072 0C11.3752 0 0 11.8645 0 26.5C0 41.1355 11.3752 53 25.4072 53ZM11.5425 21.4265H17.4451V41.2158H11.5425V21.4265ZM14.4954 11.5894C16.3816 11.5894 17.9128 13.1874 17.9128 15.156C17.9128 17.125 16.3816 18.7228 14.4954 18.7228C12.6016 18.7228 11.0745 17.125 11.0745 15.156C11.0745 13.1874 12.6016 11.5894 14.4954 11.5894ZM26.7964 21.4264H21.1443V41.2157H27.0337V31.4279C27.0337 28.8459 27.502 26.345 30.5703 26.345C33.5964 26.345 33.6345 29.2972 33.6345 31.592V41.2157H39.5303V30.3623C39.5303 25.0328 38.427 20.9353 32.4568 20.9353C29.5879 20.9353 27.6638 22.5759 26.8774 24.1318H26.7964V21.4264Z" fill="#FFB192"/>
</svg>
