<svg width="51" height="53" viewBox="0 0 51 53" fill="none" xmlns="http://www.w3.org/2000/svg">
<path fill-rule="evenodd" clip-rule="evenodd" d="M25.5928 53C39.6248 53 51 41.1355 51 26.5C51 11.8645 39.6248 0 25.5928 0C11.5608 0 0.185547 11.8645 0.185547 26.5C0.185547 41.1355 11.5608 53 25.5928 53ZM11.728 21.4265H17.6306V41.2158H11.728V21.4265ZM14.6809 11.5893C16.5671 11.5893 18.0984 13.1873 18.0984 15.1559C18.0984 17.125 16.5671 18.7228 14.6809 18.7228C12.7871 18.7228 11.26 17.125 11.26 15.1559C11.26 13.1873 12.7871 11.5893 14.6809 11.5893ZM26.9822 21.4265H21.3298V41.2157H27.2192V31.4279C27.2192 28.846 27.6875 26.3451 30.7559 26.3451C33.782 26.3451 33.8201 29.2973 33.8201 31.592V41.2157H39.7158V30.3624C39.7158 25.0329 38.6125 20.9353 32.6423 20.9353C29.7734 20.9353 27.8494 22.576 27.063 24.1318H26.9822V21.4265Z" fill="white"/>
</svg>
